<mxfile host="65bd71144e">
    <diagram id="g32roVNftYkZaOqn-Fnz" name="ページ1">
        <mxGraphModel dx="1180" dy="605" grid="1" gridSize="10" guides="1" tooltips="1" connect="1" arrows="1" fold="1" page="1" pageScale="1" pageWidth="827" pageHeight="1169" math="0" shadow="0">
            <root>
                <mxCell id="0"/>
                <mxCell id="1" parent="0"/>
                <mxCell id="85" value="モデル" style="rounded=0;whiteSpace=wrap;html=1;fillColor=#51556E;fontColor=#FFFFFF;strokeColor=#666666;fontStyle=1;verticalAlign=top;fontSize=17;" parent="1" vertex="1">
                    <mxGeometry x="780" y="130" width="560" height="300" as="geometry"/>
                </mxCell>
                <mxCell id="5" value="&lt;b&gt;Store&lt;/b&gt;" style="rounded=0;whiteSpace=wrap;html=1;fontSize=16;verticalAlign=top;fillColor=#C7A078;strokeColor=#d6b656;fontFamily=Noto Sans JP;fontSource=https%3A%2F%2Ffonts.googleapis.com%2Fcss%3Ffamily%3DNoto%2BSans%2BJP;" parent="1" vertex="1">
                    <mxGeometry x="790" y="170" width="380" height="250" as="geometry"/>
                </mxCell>
                <mxCell id="11" value="" style="endArrow=classic;html=1;fontSize=14;fontFamily=Noto Sans JP;fontSource=https%3A%2F%2Ffonts.googleapis.com%2Fcss%3Ffamily%3DNoto%2BSans%2BJP;exitX=0;exitY=0.5;exitDx=0;exitDy=0;startArrow=none;startFill=1;dashed=1;strokeWidth=3;dashPattern=1 1;strokeColor=#FFFFFF;" parent="1" source="86" target="57" edge="1">
                    <mxGeometry width="50" height="50" relative="1" as="geometry">
                        <mxPoint x="1229" y="213" as="sourcePoint"/>
                        <mxPoint x="1160" y="320" as="targetPoint"/>
                    </mxGeometry>
                </mxCell>
                <mxCell id="12" value="API" style="rounded=0;whiteSpace=wrap;html=1;fontSize=16;fillColor=#2E303E;strokeColor=#FFFFFF;fontFamily=Noto Sans JP;fontSource=https%3A%2F%2Ffonts.googleapis.com%2Fcss%3Ffamily%3DNoto%2BSans%2BJP;fontColor=#FFFFFF;" parent="1" vertex="1">
                    <mxGeometry x="1380" y="335" width="120" height="60" as="geometry"/>
                </mxCell>
                <mxCell id="19" value="&lt;span&gt;アプリケーションの状態・データ&lt;/span&gt;&lt;span&gt;&lt;br&gt;&lt;/span&gt;" style="rounded=0;whiteSpace=wrap;html=1;fontSize=14;fontFamily=Noto Sans JP;fontSource=https%3A%2F%2Ffonts.googleapis.com%2Fcss%3Ffamily%3DNoto%2BSans%2BJP;perimeterSpacing=4;fontStyle=1;align=center;" parent="1" vertex="1">
                    <mxGeometry x="832" y="220" width="305" height="62" as="geometry"/>
                </mxCell>
                <mxCell id="57" value="&lt;span&gt;データのビジネスロジック&lt;/span&gt;&lt;br&gt;&lt;span style=&quot;font-weight: normal&quot;&gt;&lt;div&gt;&lt;span&gt;（データ加工、Web API呼び出し）&lt;/span&gt;&lt;/div&gt;&lt;/span&gt;" style="rounded=0;whiteSpace=wrap;html=1;fontSize=14;fontFamily=Noto Sans JP;fontSource=https%3A%2F%2Ffonts.googleapis.com%2Fcss%3Ffamily%3DNoto%2BSans%2BJP;perimeterSpacing=4;fontStyle=1;align=center;" parent="1" vertex="1">
                    <mxGeometry x="832" y="330" width="305" height="70" as="geometry"/>
                </mxCell>
                <mxCell id="64" value="Component" style="rounded=0;whiteSpace=wrap;html=1;align=center;spacingLeft=5;fillColor=#A0C28F;fontColor=#000000;strokeColor=#677D5C;verticalAlign=top;fontSize=16;fontFamily=Noto Sans JP;fontSource=https%3A%2F%2Ffonts.googleapis.com%2Fcss%3Ffamily%3DNoto%2BSans%2BJP;fontStyle=1;spacingTop=6;" parent="1" vertex="1">
                    <mxGeometry x="90" y="120" width="590" height="210" as="geometry"/>
                </mxCell>
                <mxCell id="65" value="&lt;b&gt;ビュー&lt;/b&gt;&lt;br style=&quot;font-size: 14px&quot;&gt;(データバインド、デザイン、&lt;br&gt;フォーマット)" style="rounded=0;whiteSpace=wrap;html=1;fontSize=14;fontFamily=Noto Sans JP;fontSource=https%3A%2F%2Ffonts.googleapis.com%2Fcss%3Ffamily%3DNoto%2BSans%2BJP;perimeterSpacing=4;fillColor=#51556E;strokeColor=#666666;fontColor=#FFFFFF;" parent="1" vertex="1">
                    <mxGeometry x="110.5" y="191" width="249.5" height="99" as="geometry"/>
                </mxCell>
                <mxCell id="66" value="&lt;b&gt;ビューモデル&lt;/b&gt;&lt;br style=&quot;font-size: 14px&quot;&gt;(イベント処理、入力チェック)" style="rounded=0;whiteSpace=wrap;html=1;fontSize=14;fontFamily=Noto Sans JP;fontSource=https%3A%2F%2Ffonts.googleapis.com%2Fcss%3Ffamily%3DNoto%2BSans%2BJP;perimeterSpacing=4;fillColor=#51556E;fontColor=#FFFFFF;strokeColor=#666666;" parent="1" vertex="1">
                    <mxGeometry x="413" y="195" width="250" height="95" as="geometry"/>
                </mxCell>
                <mxCell id="58" value="" style="endArrow=classic;html=1;fontSize=14;fontFamily=Noto Sans JP;fontSource=https%3A%2F%2Ffonts.googleapis.com%2Fcss%3Ffamily%3DNoto%2BSans%2BJP;exitX=1;exitY=0.5;exitDx=0;exitDy=0;strokeColor=#FFFFFF;strokeWidth=3;" parent="1" source="66" edge="1">
                    <mxGeometry width="50" height="50" relative="1" as="geometry">
                        <mxPoint x="640" y="262" as="sourcePoint"/>
                        <mxPoint x="810" y="310" as="targetPoint"/>
                    </mxGeometry>
                </mxCell>
                <mxCell id="79" value="" style="shape=flexArrow;endArrow=classic;startArrow=classic;html=1;startSize=2;endSize=2;strokeWidth=1;exitX=0.5;exitY=0;exitDx=0;exitDy=0;entryX=0.5;entryY=1;entryDx=0;entryDy=0;fillColor=default;" parent="1" source="57" target="19" edge="1">
                    <mxGeometry width="100" height="100" relative="1" as="geometry">
                        <mxPoint x="900" y="310" as="sourcePoint"/>
                        <mxPoint x="1000" y="210" as="targetPoint"/>
                    </mxGeometry>
                </mxCell>
                <mxCell id="80" value="" style="endArrow=classic;html=1;fontSize=14;fontFamily=Noto Sans JP;fontSource=https%3A%2F%2Ffonts.googleapis.com%2Fcss%3Ffamily%3DNoto%2BSans%2BJP;startArrow=classic;startFill=1;dashed=1;strokeWidth=3;dashPattern=1 1;entryX=1;entryY=0.5;entryDx=0;entryDy=0;" parent="1" source="66" target="65" edge="1">
                    <mxGeometry width="50" height="50" relative="1" as="geometry">
                        <mxPoint x="390" y="223" as="sourcePoint"/>
                        <mxPoint x="1151" y="375" as="targetPoint"/>
                    </mxGeometry>
                </mxCell>
                <mxCell id="81" value="Component" style="rounded=0;whiteSpace=wrap;html=1;align=center;spacingLeft=5;fillColor=#A0C28F;fontColor=#000000;strokeColor=#677D5C;verticalAlign=top;fontSize=16;fontFamily=Noto Sans JP;fontSource=https%3A%2F%2Ffonts.googleapis.com%2Fcss%3Ffamily%3DNoto%2BSans%2BJP;fontStyle=1;spacingTop=6;" parent="1" vertex="1">
                    <mxGeometry x="90" y="360" width="590" height="210" as="geometry"/>
                </mxCell>
                <mxCell id="82" value="&lt;b&gt;ビュー&lt;/b&gt;&lt;br style=&quot;font-size: 14px&quot;&gt;(データバインド、デザイン、&lt;br style=&quot;font-size: 14px&quot;&gt;フォーマット)" style="rounded=0;whiteSpace=wrap;html=1;fontSize=14;fontFamily=Noto Sans JP;fontSource=https%3A%2F%2Ffonts.googleapis.com%2Fcss%3Ffamily%3DNoto%2BSans%2BJP;perimeterSpacing=4;fillColor=#51556E;fontColor=#FFFFFF;strokeColor=#666666;" parent="1" vertex="1">
                    <mxGeometry x="110.5" y="431" width="249.5" height="99" as="geometry"/>
                </mxCell>
                <mxCell id="83" value="&lt;b&gt;ビューモデル&lt;/b&gt;&lt;br style=&quot;font-size: 14px&quot;&gt;(イベント処理、入力チェック)" style="rounded=0;whiteSpace=wrap;html=1;fontSize=14;fontFamily=Noto Sans JP;fontSource=https%3A%2F%2Ffonts.googleapis.com%2Fcss%3Ffamily%3DNoto%2BSans%2BJP;perimeterSpacing=4;fillColor=#51556E;fontColor=#FFFFFF;strokeColor=#666666;" parent="1" vertex="1">
                    <mxGeometry x="413" y="435" width="250" height="95" as="geometry"/>
                </mxCell>
                <mxCell id="84" value="" style="endArrow=classic;html=1;fontSize=14;fontFamily=Noto Sans JP;fontSource=https%3A%2F%2Ffonts.googleapis.com%2Fcss%3Ffamily%3DNoto%2BSans%2BJP;startArrow=classic;startFill=1;dashed=1;strokeWidth=3;dashPattern=1 1;entryX=1;entryY=0.5;entryDx=0;entryDy=0;" parent="1" source="83" target="82" edge="1">
                    <mxGeometry width="50" height="50" relative="1" as="geometry">
                        <mxPoint x="390" y="463" as="sourcePoint"/>
                        <mxPoint x="1151" y="615" as="targetPoint"/>
                    </mxGeometry>
                </mxCell>
                <mxCell id="70" value="" style="endArrow=classic;html=1;fontSize=14;fontFamily=Noto Sans JP;fontSource=https%3A%2F%2Ffonts.googleapis.com%2Fcss%3Ffamily%3DNoto%2BSans%2BJP;entryX=0.053;entryY=0.708;entryDx=0;entryDy=0;exitX=1;exitY=0.5;exitDx=0;exitDy=0;entryPerimeter=0;strokeColor=#FFFFFF;strokeWidth=3;" parent="1" source="83" target="5" edge="1">
                    <mxGeometry width="50" height="50" relative="1" as="geometry">
                        <mxPoint x="634.4999999999995" y="513" as="sourcePoint"/>
                        <mxPoint x="795.06" y="313.9200000000001" as="targetPoint"/>
                    </mxGeometry>
                </mxCell>
                <mxCell id="86" value="APIモデル" style="ellipse;whiteSpace=wrap;html=1;rounded=1;fontSize=16;fontStyle=1;fillColor=#b0e3e6;strokeColor=#0e8088;" parent="1" vertex="1">
                    <mxGeometry x="1200" y="325" width="120" height="80" as="geometry"/>
                </mxCell>
                <mxCell id="87" value="" style="endArrow=none;html=1;fontSize=14;fontFamily=Noto Sans JP;fontSource=https%3A%2F%2Ffonts.googleapis.com%2Fcss%3Ffamily%3DNoto%2BSans%2BJP;exitX=0;exitY=0.5;exitDx=0;exitDy=0;startArrow=classic;startFill=1;dashed=1;strokeWidth=3;dashPattern=1 1;strokeColor=#FFFFFF;" parent="1" source="12" target="86" edge="1">
                    <mxGeometry width="50" height="50" relative="1" as="geometry">
                        <mxPoint x="1380" y="365" as="sourcePoint"/>
                        <mxPoint x="1140.9999999999998" y="365" as="targetPoint"/>
                    </mxGeometry>
                </mxCell>
            </root>
        </mxGraphModel>
    </diagram>
</mxfile>